<?xml version="1.0" encoding="UTF-8"?><svg id="Layer_1" xmlns="http://www.w3.org/2000/svg" viewBox="0 0 549.03 53.71"><path d="M78.13,37.05c.16,8.65-5.19,15.84-12.13,15.84l-66,.06v-25.49h70.57c4.25.2,7.46,4.06,7.56,9.58h0Z" fill="#9b121f"/><path d="M80.12,25.47l-66.98-.03c-4.39,0-7.37-4.84-7.21-10.36C6.19,6.61,11.22.04,17.74,0h62.39v25.47h-.01Z" fill="#9b121f"/><path d="M164.41,53.71h-10.37v-28.24h-24.77v28.24h-10.37v-28.24h-24.77v28.24h-10.37V15.5h68.12c6.91,0,12.53,5.4,12.53,12.04v26.16Z" fill="#9b121f"/><path d="M224.89,53.71h-45.22c-6.98,0-12.53-5.4-12.53-12.04s5.54-12.04,12.53-12.04h31.4v9.97h-33.56v4.15h37.01v-18.27h-45.51v-9.97h43.35c6.91,0,12.53,5.4,12.53,12.04v26.16Z" fill="#9b121f"/><path d="M285.37,36.27h-10.37v-10.8h-35.14v28.24h-10.37V15.5h43.35c6.91,0,12.53,5.4,12.53,12.04v8.72Z" fill="#9b121f"/><path d="M344.7,53.71h-43.35c-6.91,0-12.53-5.4-12.53-12.04V1.38h10.37v42.36h45.51v9.97ZM344.7,25.47h-42.05v-9.97h42.05v9.97Z" fill="#9b121f"/><path d="M405.17,53.71h-43.35c-6.91,0-12.53-5.4-12.53-12.04v-14.12c0-6.64,5.62-12.04,12.53-12.04h43.35v9.97h-45.51v18.27h45.51v9.97Z" fill="#005c42"/><path d="M463.78,41.67c0,6.64-5.62,12.04-12.53,12.04h-30.82c-6.91,0-12.53-5.4-12.53-12.04v-14.12c0-6.64,5.62-12.04,12.53-12.04h30.82c6.91,0,12.53,5.4,12.53,12.04v14.12ZM453.41,43.74v-18.27h-35.14v18.27h35.14Z" fill="#005c42"/><path d="M549.03,53.71h-10.37v-28.24h-24.77v28.24h-10.37v-28.24h-24.77v28.24h-10.37V15.5h68.12c6.91,0,12.53,5.4,12.53,12.04v26.16Z" fill="#005c42"/></svg>