<?xml version="1.0" encoding="UTF-8"?><svg id="Layer_1" xmlns="http://www.w3.org/2000/svg" viewBox="0 0 500.2 39.63"><path d="M83.76,0c.16.46.74.13,1.21.24,2.7.66,5.04,2.3,6.49,4.76l14.63,24.73,14.83-24.92c1.44-2.42,3.8-3.95,6.46-4.6.51.05,1.05.18,1.23-.2h1.68c.16.47.75.12,1.22.22,4.55.98,7.87,4.86,7.87,9.57l.03,28.9,25.77-34.24c1.51-2.01,3.52-3.28,5.77-4.1.4,0,.7-.1.84-.35h2.64c.32.3.89.15,1.42.31,2.36.69,4.44,2.05,5.97,4.08l25.54,33.92c.13.18.23.32.31.29.14-.04.18-.21.15-.43.02-.27,0-.44,0-.76V.71s41.65,0,41.65,0c6.86,0,12.21,5.41,12.21,12.18v4.07c0,2.68-1.14,5.1-3.16,6.85-.22.19-.16.38.04.56,1.85,1.65,3.1,3.89,3.09,6.41l-.02,8.11h-9.97s-.01-9.83-.01-9.83l-30.5-.03v-9.94s30.51,0,30.51,0v-8.42s-33.83,0-33.83,0v28.23s-22.77,0-22.77,0l-5.41-7.19-28.06-.07,7.23-9.91,13.47-.04-8.81-12.1-21.51,29.31-22.58-.02-.07-28.77-14.37,24.29c-2.15,3.78-6.38,5.86-10.67,5.05-2.89-.54-5.29-2.19-6.8-4.72l-14.64-24.57-.09,28.73-10-.02V10.03c0-4.59,2.94-8.41,7.29-9.66.29-.08.51-.14.57-.37h3.12Z" fill="#9b121f"/><path d="M444.55,0c.18.38.72.25,1.21.23,2.7.7,5.03,2.31,6.49,4.77l14.63,24.73,14.73-24.78c1.23-2.07,3.05-3.47,5.22-4.35,1.51-.61,2.62-.13,2.57-.59h1.68c.16.45.75.14,1.19.23,3.77.75,6.68,3.58,7.61,7.26.08.3.07.55.31.62v30.77h-10s-.02-28.36-.02-28.36c-.08-.31-.28-.35-.32.02l-14.85,24.96c-1.41,2.37-4.05,3.4-6.54,4.03-4.21.56-8.12-1.32-10.28-4.95l-14.55-24.44-.07,28.75-10-.02V9.79c.1-4.49,3.03-8.19,7.29-9.42.29-.08.51-.14.57-.37h3.12Z" fill="#025d43"/><path d="M69.86,27.81c.14,6.16-4.64,11.28-10.84,11.28l-58.98.04v-18.15s63.06,0,63.06,0c3.8.14,6.67,2.89,6.76,6.82Z" fill="#9b121f"/><path d="M69.85,18.85l-63.06-.02c-4.13,0-6.94-3.45-6.79-7.38C.24,5.42,4.98.74,11.12.71h58.74s0,18.14,0,18.14Z" fill="#9b121f"/><rect x="263.62" y=".7" width="53.31" height="9.96" fill="#9b121f"/><rect x="285.27" y="13.98" width="10.02" height="24.91" fill="#9b121f"/><path d="M328.92,28.92l43.82.02.02,9.95h-41.65c-6.86,0-12.21-5.4-12.21-12.18v-13.84c0-6.68,5.2-12.05,11.97-12.18h41.88s0,9.95,0,9.95l-43.84.02v18.26Z" fill="#025d43"/><path d="M429.15,26.63c0,6.89-5.37,12.27-12.21,12.27h-29.47c-6.85,0-12.2-5.4-12.2-12.18v-13.84c0-6.78,5.35-12.18,12.2-12.18h29.47c6.85,0,12.2,5.4,12.2,12.18v13.75ZM419.12,10.67h-33.82v18.27h33.82V10.67Z" fill="#025d43"/></svg>